<svg width="96" height="62" viewBox="0 0 96 62" fill="none" xmlns="http://www.w3.org/2000/svg">
<g clip-path="url(#clip0)">
<path d="M20.4102 40.0806C20.4102 38.6662 20.061 37.5562 19.3628 36.7505C18.6646 35.9448 17.4382 35.1839 15.6836 34.4678C13.929 33.7516 12.3088 33.0265 10.8228 32.2925C9.33675 31.5584 8.05664 30.708 6.98242 29.7412C5.9082 28.7744 5.08464 27.6554 4.51172 26.3843C3.9388 25.1131 3.65234 23.5734 3.65234 21.7651C3.65234 18.7394 4.67285 16.2508 6.71387 14.2993C8.75488 12.3299 11.4762 11.1841 14.8779 10.8618V5.19531H19.1479V10.9692C22.4243 11.4526 24.9935 12.8044 26.8555 15.0244C28.7354 17.2266 29.6753 20.0285 29.6753 23.4302H20.5981C20.5981 21.5682 20.2401 20.1359 19.5239 19.1333C18.8078 18.1307 17.7873 17.6294 16.4624 17.6294C15.2808 17.6294 14.3587 18.0054 13.6963 18.7573C13.0518 19.4914 12.7295 20.5119 12.7295 21.8188C12.7295 23.1437 13.1055 24.2 13.8574 24.9878C14.6094 25.7576 15.8179 26.5007 17.4829 27.2168C19.1479 27.915 20.7145 28.6491 22.1826 29.4189C23.6686 30.1709 24.9487 31.0303 26.0229 31.9971C27.0972 32.9639 27.9386 34.0918 28.5474 35.3809C29.1561 36.6699 29.4604 38.2186 29.4604 40.0269C29.4604 43.0884 28.4847 45.5859 26.5332 47.5195C24.5996 49.4531 21.9588 50.5811 18.6108 50.9033V56.3013H14.3408V50.8765C10.4378 50.4647 7.43896 49.1309 5.34424 46.875C3.26742 44.6012 2.229 41.6113 2.229 37.9053H11.2793C11.2793 39.9463 11.7269 41.5039 12.6221 42.5781C13.5352 43.6344 14.8242 44.1626 16.4893 44.1626C17.7067 44.1626 18.6646 43.8045 19.3628 43.0884C20.061 42.3543 20.4102 41.3517 20.4102 40.0806ZM54.5018 50.4468H45.4246V21.5503L36.5086 24.1553V17.2803L53.6692 11.3452H54.5018V50.4468ZM93.6422 34.4678C93.6422 39.7493 92.4516 43.8224 90.0704 46.687C87.7071 49.5516 84.3681 50.9839 80.0533 50.9839C75.7027 50.9839 72.3369 49.5426 69.9557 46.6602C67.5745 43.7777 66.3839 39.7135 66.3839 34.4678V27.3242C66.3839 22.0426 67.5655 17.9696 69.9288 15.105C72.31 12.2404 75.6669 10.8081 79.9996 10.8081C84.3323 10.8081 87.6892 12.2493 90.0704 15.1318C92.4516 18.0143 93.6422 22.0874 93.6422 27.3511V34.4678ZM84.5919 26.1694C84.5919 23.3586 84.2249 21.2638 83.4908 19.8853C82.7568 18.4888 81.593 17.7905 79.9996 17.7905C78.442 17.7905 77.3051 18.4351 76.589 19.7241C75.8907 21.0132 75.5147 22.9647 75.461 25.5786V35.5688C75.461 38.4871 75.8281 40.6266 76.5621 41.9873C77.2962 43.3301 78.4599 44.0015 80.0533 44.0015C81.593 44.0015 82.7299 43.348 83.464 42.041C84.198 40.7161 84.574 38.6483 84.5919 35.8374V26.1694Z" fill="white"/>
</g>
<defs>
<clipPath id="clip0">
<rect width="96" height="86" fill="white" transform="translate(0 -11.5532)"/>
</clipPath>
</defs>
</svg>
