<svg width="146" height="30" viewBox="0 0 146 30" fill="none" xmlns="http://www.w3.org/2000/svg">
<g clip-path="url(#clip0)">
<path d="M26.7025 11.7149C26.626 11.4896 26.4852 11.2917 26.2976 11.1455C26.1099 10.9994 25.8835 10.9114 25.6464 10.8924L18.7102 10.3413L15.7087 3.69704C15.6131 3.48304 15.4576 3.30128 15.261 3.1737C15.0644 3.04611 14.8351 2.97816 14.6007 2.97803C14.3663 2.9779 14.1369 3.0456 13.9402 3.17297C13.7434 3.30034 13.5877 3.48193 13.4919 3.69582L10.4904 10.3413L3.55418 10.8924C3.32113 10.9109 3.09834 10.9961 2.91245 11.1378C2.72656 11.2796 2.58546 11.4719 2.50601 11.6918C2.42656 11.9117 2.41214 12.1497 2.46446 12.3776C2.51679 12.6054 2.63365 12.8134 2.80106 12.9766L7.92688 17.9734L6.11404 25.8233C6.059 26.061 6.07664 26.3096 6.16468 26.5371C6.25272 26.7646 6.40709 26.9603 6.60777 27.0989C6.80844 27.2376 7.04615 27.3127 7.29005 27.3146C7.53395 27.3164 7.77278 27.2449 7.97554 27.1094L14.6003 22.6929L21.225 27.1094C21.4323 27.247 21.6767 27.3178 21.9254 27.3123C22.1741 27.3069 22.4152 27.2254 22.6162 27.0788C22.8172 26.9323 22.9685 26.7277 23.0498 26.4926C23.131 26.2575 23.1383 26.0031 23.0707 25.7637L20.8454 17.9771L26.3642 13.0106C26.7256 12.6846 26.8582 12.176 26.7025 11.7149Z" fill="#F3CD03"/>
<path d="M55.9017 11.7149C55.8252 11.4896 55.6845 11.2917 55.4968 11.1455C55.3091 10.9994 55.0827 10.9114 54.8456 10.8924L47.9094 10.3413L44.9079 3.69704C44.8123 3.48304 44.6568 3.30128 44.4602 3.1737C44.2636 3.04611 44.0343 2.97816 43.7999 2.97803C43.5655 2.9779 43.3361 3.0456 43.1394 3.17297C42.9426 3.30034 42.787 3.48193 42.6911 3.69582L39.6896 10.3413L32.7534 10.8924C32.5203 10.9109 32.2976 10.9961 32.1117 11.1378C31.9258 11.2796 31.7847 11.4719 31.7052 11.6918C31.6258 11.9117 31.6114 12.1497 31.6637 12.3776C31.716 12.6054 31.8329 12.8134 32.0003 12.9766L37.1261 17.9734L35.3133 25.8233C35.2582 26.061 35.2759 26.3096 35.3639 26.5371C35.4519 26.7646 35.6063 26.9603 35.807 27.0989C36.0077 27.2376 36.2454 27.3127 36.4893 27.3146C36.7332 27.3164 36.972 27.2449 37.1748 27.1094L43.7995 22.6929L50.4243 27.1094C50.6315 27.247 50.8759 27.3178 51.1246 27.3123C51.3733 27.3069 51.6144 27.2254 51.8154 27.0788C52.0164 26.9323 52.1677 26.7277 52.249 26.4926C52.3302 26.2575 52.3376 26.0031 52.2699 25.7637L50.0447 17.9771L55.5635 13.0106C55.9248 12.6846 56.0574 12.176 55.9017 11.7149Z" fill="#F3CD03"/>
<path d="M85.1009 11.7149C85.0244 11.4896 84.8837 11.2917 84.696 11.1455C84.5083 10.9994 84.282 10.9114 84.0448 10.8924L77.1086 10.3413L74.1071 3.69704C74.0115 3.48304 73.856 3.30128 73.6594 3.1737C73.4628 3.04611 73.2335 2.97816 72.9991 2.97803C72.7647 2.9779 72.5353 3.0456 72.3386 3.17297C72.1419 3.30034 71.9862 3.48193 71.8903 3.69582L68.8888 10.3413L61.9526 10.8924C61.7196 10.9109 61.4968 10.9961 61.3109 11.1378C61.125 11.2796 60.9839 11.4719 60.9044 11.6918C60.825 11.9117 60.8106 12.1497 60.8629 12.3776C60.9152 12.6054 61.0321 12.8134 61.1995 12.9766L66.3253 17.9734L64.5125 25.8233C64.4574 26.061 64.4751 26.3096 64.5631 26.5371C64.6512 26.7646 64.8055 26.9603 65.0062 27.0989C65.2069 27.2376 65.4446 27.3127 65.6885 27.3146C65.9324 27.3164 66.1712 27.2449 66.374 27.1094L72.9987 22.6929L79.6235 27.1094C79.8307 27.247 80.0751 27.3178 80.3238 27.3123C80.5725 27.3069 80.8136 27.2254 81.0146 27.0788C81.2156 26.9323 81.3669 26.7277 81.4482 26.4926C81.5295 26.2575 81.5368 26.0031 81.4692 25.7637L79.2439 17.9771L84.7627 13.0106C85.124 12.6846 85.2566 12.176 85.1009 11.7149Z" fill="#F3CD03"/>
<path d="M114.304 11.7149C114.228 11.4896 114.087 11.2917 113.899 11.1455C113.711 10.9994 113.485 10.9114 113.248 10.8924L106.312 10.3413L103.31 3.69704C103.215 3.48304 103.059 3.30128 102.863 3.1737C102.666 3.04611 102.437 2.97816 102.202 2.97803C101.968 2.9779 101.738 3.0456 101.542 3.17297C101.345 3.30034 101.189 3.48193 101.093 3.69582L98.092 10.3413L91.1557 10.8924C90.9227 10.9109 90.6999 10.9961 90.514 11.1378C90.3281 11.2796 90.187 11.4719 90.1076 11.6918C90.0281 11.9117 90.0137 12.1497 90.066 12.3776C90.1183 12.6054 90.2352 12.8134 90.4026 12.9766L95.5284 17.9734L93.7156 25.8233C93.6606 26.061 93.6782 26.3096 93.7662 26.5371C93.8543 26.7646 94.0087 26.9603 94.2093 27.0989C94.41 27.2376 94.6477 27.3127 94.8916 27.3146C95.1355 27.3164 95.3743 27.2449 95.5771 27.1094L102.202 22.6929L108.827 27.1094C109.034 27.247 109.278 27.3178 109.527 27.3123C109.776 27.3069 110.017 27.2254 110.218 27.0788C110.419 26.9323 110.57 26.7277 110.651 26.4926C110.733 26.2575 110.74 26.0031 110.672 25.7637L108.447 17.9771L113.966 13.0106C114.327 12.6846 114.46 12.176 114.304 11.7149Z" fill="#F3CD03"/>
<path d="M124.729 17.9733L122.916 25.8232C122.86 26.0609 122.877 26.31 122.964 26.538C123.052 26.766 123.206 26.9622 123.407 27.1011C123.608 27.24 123.846 27.3151 124.091 27.3165C124.335 27.318 124.574 27.2457 124.776 27.1092L131.401 22.6927L138.026 27.1092C138.233 27.2468 138.477 27.3177 138.726 27.3122C138.975 27.3068 139.216 27.2253 139.417 27.0787C139.618 26.9322 139.769 26.7276 139.851 26.4925C139.932 26.2574 139.939 26.003 139.872 25.7636L137.646 17.9769L143.165 13.0105C143.342 12.8513 143.468 12.6439 143.528 12.4137C143.588 12.1836 143.58 11.9409 143.503 11.7157C143.427 11.4904 143.286 11.2925 143.098 11.1464C142.911 11.0002 142.684 10.9123 142.447 10.8935L135.511 10.3411L132.509 3.69692C132.414 3.48297 132.258 3.3013 132.061 3.17382C131.865 3.04635 131.635 2.97852 131.401 2.97852C131.167 2.97852 130.937 3.04635 130.741 3.17382C130.544 3.3013 130.388 3.48297 130.293 3.69692L127.291 10.3411L120.355 10.8923C120.122 10.9107 119.899 10.996 119.713 11.1377C119.527 11.2795 119.386 11.4718 119.307 11.6917C119.227 11.9115 119.213 12.1496 119.265 12.3775C119.318 12.6053 119.434 12.8133 119.602 12.9764L124.729 17.9733ZM128.2 12.71C128.417 12.6929 128.626 12.6177 128.804 12.4922C128.982 12.3668 129.123 12.1957 129.212 11.997L131.401 7.15347L133.59 11.997C133.679 12.1957 133.82 12.3668 133.998 12.4922C134.176 12.6177 134.385 12.6929 134.602 12.71L139.435 13.0932L135.455 16.6751C135.109 16.9866 134.972 17.4659 135.099 17.9137L136.623 23.2487L132.078 20.218C131.878 20.0841 131.643 20.0126 131.403 20.0126C131.163 20.0126 130.928 20.0841 130.728 20.218L125.978 23.385L127.256 17.854C127.303 17.6506 127.296 17.4386 127.238 17.2383C127.179 17.038 127.069 16.8562 126.92 16.7104L123.224 13.1066L128.2 12.71Z" fill="#F3CD03"/>
</g>
<defs>
<clipPath id="clip0">
<rect width="146" height="29.2" fill="white" transform="translate(0 0.546875)"/>
</clipPath>
</defs>
</svg>
